<svg xmlns="http://www.w3.org/2000/svg" viewBox="0 0 64 64" fill="none">
  <rect width="64" height="64" rx="14" fill="#1a1a10"/>
  <path d="M32 12 C28 16 18 24 18 34 C18 44 24 50 32 50 C40 50 46 44 46 34 C46 24 36 16 32 12Z" fill="#348529" opacity="0.9"/>
  <path d="M32 20 C30 24 24 30 24 38 C24 44 28 48 32 48 C36 48 40 44 40 38 C40 30 34 24 32 20Z" fill="#4ade4a" opacity="0.6"/>
  <line x1="32" y1="48" x2="32" y2="56" stroke="#348529" stroke-width="3" stroke-linecap="round"/>
  <line x1="26" y1="52" x2="32" y2="48" stroke="#348529" stroke-width="2" stroke-linecap="round"/>
  <line x1="38" y1="52" x2="32" y2="48" stroke="#348529" stroke-width="2" stroke-linecap="round"/>
</svg>
